<svg width="1440" height="1024" viewBox="0 0 1440 1024" fill="none" xmlns="http://www.w3.org/2000/svg">
<g clip-path="url(#clip0_155_18)">
<rect width="1440" height="1024" fill="#E7ECFF"/>
<path d="M214.072 1142.55L139.567 1271.16L-232.308 1003.4L-143.658 850.382L55.8651 918.717L261.315 1061.01L214.072 1142.55Z" fill="#FEBD59"/>
<path fill-rule="evenodd" clip-rule="evenodd" d="M674.101 1349.24C707.976 1412.14 738.122 1468.11 909.63 1377.61C1045.91 1305.69 1811.13 842.472 1811.13 842.472C1811.13 842.472 1783.51 591.714 1748.3 653.033C1713.09 714.353 1412.94 831.815 1498.09 664.246C1583.23 496.676 1049.87 695.925 975.073 794.127C888.518 907.769 1148.56 948.716 1024.5 1010.24C900.441 1071.77 992.444 1114.84 733.903 1129.97C475.362 1145.1 429.191 1260.64 527.072 1255.08C620.528 1249.77 648.389 1301.5 674.101 1349.24Z" fill="#099D49"/>
<path d="M1413.5 742C1551.51 742 1661 848.501 1661 977C1661 1105.5 1551.51 1212 1413.5 1212C1275.49 1212 1166 1105.5 1166 977C1166 848.501 1275.49 742 1413.5 742Z" stroke="white" stroke-width="60"/>
<path d="M1421 837.5C1510.75 837.5 1582 907.94 1582 993C1582 1078.06 1510.75 1148.5 1421 1148.5C1331.25 1148.5 1260 1078.06 1260 993C1260 907.94 1331.25 837.5 1421 837.5Z" stroke="white" stroke-width="60"/>
<path d="M1429.5 934.5C1465.79 934.5 1497 965.282 1497 1005.5C1497 1045.72 1465.79 1076.5 1429.5 1076.5C1393.21 1076.5 1362 1045.72 1362 1005.5C1362 965.282 1393.21 934.5 1429.5 934.5Z" stroke="white" stroke-width="60"/>
<path d="M1184.84 -114.998C1117.9 -71.0523 964.607 -193.068 931.732 -135.505C898.857 -77.9426 725.5 -6.49997 587 -6.49999C448.5 -6.50001 377 81 259.5 109C142 137 65 307.5 -56.0007 812C-57.5834 811.123 -59.0563 807.048 -60.4387 800.264L-123.5 633.5L-140.471 -121.355L1252.32 -556.148L1351.15 -239.575L1502.53 100.63C1339.18 50.5309 1251.79 -158.944 1184.84 -114.998Z" fill="#2BA9E4"/>
<path d="M120 105.427L152.226 92.5265L162.426 63.0001L172.026 92.5265L204.853 105.427L172.026 116.827L162.426 147.853L152.226 116.827L120 105.427Z" fill="white"/>
<path d="M92 158.427L113.484 149.827L120.284 130.142L126.684 149.827L148.569 158.427L126.684 166.027L120.284 186.711L113.484 166.027L92 158.427Z" fill="white"/>
</g>
<defs>
<clipPath id="clip0_155_18">
<rect width="1440" height="1024" fill="white"/>
</clipPath>
</defs>
</svg>
